<svg width="16" height="16" viewBox="0 0 16 16" fill="none" xmlns="http://www.w3.org/2000/svg">
<circle cx="8" cy="8" r="8" fill="#FF7A00" fill-opacity="0.8"/>
<g clip-path="url(#clip0_610_33)">
<path d="M5.5 3.625V3.9375H4.875V3.625C4.875 3.45319 5.01569 3.3125 5.1875 3.3125C5.35931 3.3125 5.5 3.45319 5.5 3.625ZM8 3.3125C7.82819 3.3125 7.6875 3.45319 7.6875 3.625V3.9375H8.3125V3.625C8.3125 3.45319 8.17181 3.3125 8 3.3125ZM10.8125 3.3125C10.6407 3.3125 10.5 3.45319 10.5 3.625V3.9375H11.125V3.625C11.125 3.45319 10.9843 3.3125 10.8125 3.3125ZM11.75 3.9375H11.125V4.25C11.125 4.42181 10.9843 4.5625 10.8125 4.5625C10.6407 4.5625 10.5 4.42181 10.5 4.25V3.9375H8.3125V4.25C8.3125 4.42181 8.17181 4.5625 8 4.5625C7.82819 4.5625 7.6875 4.42181 7.6875 4.25V3.9375H5.5V4.25C5.5 4.42181 5.35931 4.5625 5.1875 4.5625C5.01569 4.5625 4.875 4.42181 4.875 4.25V3.9375H4.25C3.73425 3.9375 3.3125 4.35941 3.3125 4.875V5.8125H12.6875V4.875C12.6875 4.35941 12.2657 3.9375 11.75 3.9375ZM12.6875 6.4375V11.75C12.6875 12.267 12.267 12.6875 11.75 12.6875H4.25C3.73303 12.6875 3.3125 12.267 3.3125 11.75V6.4375H12.6875ZM8.9375 9.96442L9.875 8.89325H8.53528L8 7.6875L7.46472 8.89325H6.125L7.0625 9.96442L6.66028 11.4375L8 10.6346L9.33972 11.4375L8.9375 9.96442Z" fill="white"/>
</g>
<defs>
<clipPath id="clip0_610_33">
<rect width="10" height="10" fill="white" transform="translate(3 3)"/>
</clipPath>
</defs>
</svg>
